<?xml version="1.0" encoding="utf-8"?>
<!-- Generator: Adobe Illustrator 17.1.0, SVG Export Plug-In . SVG Version: 6.00 Build 0)  -->
<!DOCTYPE svg PUBLIC "-//W3C//DTD SVG 1.1//EN" "http://www.w3.org/Graphics/SVG/1.1/DTD/svg11.dtd">
<svg version="1.1" id="Layer_1" xmlns="http://www.w3.org/2000/svg" xmlns:xlink="http://www.w3.org/1999/xlink" x="0px" y="0px"
	 viewBox="0 0 91 91" enable-background="new 0 0 91 91" xml:space="preserve">
<g>
	<path fill="#658AD4" d="M46.8,53.1c6.6,0,12-5.4,12-12s-5.4-12-12-12c-6.6,0-12,5.4-12,12S40.2,53.1,46.8,53.1z M46.8,32.6
		c4.7,0,8.6,3.9,8.6,8.6s-3.9,8.6-8.6,8.6c-4.7,0-8.6-3.9-8.6-8.6S42.1,32.6,46.8,32.6z"/>
	<path fill="#658AD4" d="M30.1,64.5l4.6,11.1l11.1-14.7c0.3,0,0.7,0.1,1,0.1c0.4,0,0.8,0,1.2-0.1l11.1,14.7l4.6-11.1l12-1.4L65,49
		c1.1-2.4,1.6-5.1,1.6-7.9c0-10.9-8.9-19.8-19.8-19.8C35.9,21.3,27,30.2,27,41.1c0,2.9,0.6,5.6,1.7,8l-10.5,14L30.1,64.5z
		 M69.4,60.4l-8,0.9l-3.1,7.5l-6.4-8.5c4.7-1.2,8.8-4.1,11.4-8L69.4,60.4z M46.8,24.7c9.1,0,16.4,7.4,16.4,16.4
		c0,9.1-7.4,16.4-16.4,16.4c-9.1,0-16.4-7.4-16.4-16.4C30.4,32.1,37.7,24.7,46.8,24.7z M30.5,52.4c2.7,3.9,6.8,6.8,11.5,8l-6.4,8.5
		l-3.1-7.5l-8-0.9L30.5,52.4z"/>
</g>
</svg>
