<?xml version="1.0" encoding="utf-8"?>
<!-- Generator: Adobe Illustrator 19.2.0, SVG Export Plug-In . SVG Version: 6.00 Build 0)  -->
<svg version="1.1" id="Isolation_Mode" xmlns="http://www.w3.org/2000/svg" xmlns:xlink="http://www.w3.org/1999/xlink" x="0px"
	 y="0px" viewBox="0 0 274.9 295" style="enable-background:new 0 0 274.9 295;" xml:space="preserve">
<style type="text/css">
	.st0{fill-rule:evenodd;clip-rule:evenodd;fill:#FFFFFF;}
</style>
<g>
	<path class="st0" d="M66.4,191.7l-8.6,14.4h74h108.6l-54.3-94l-54.3-94l-54.3,94l-36.1,64.5l149.1,0.2L132.2,72.7l-56.5,97.4
		l-10.5,0l67.1-115.7l73.6,131.3l-182.2,0.1l46-78.3L131.9,0L194,107.6l62.1,107.6H42.2l14.2-23.3L66.4,191.7L66.4,191.7z M132,93.8
		l-44.1,76.3l44.1-44.4l44.1,44.4L132,93.8z"/>
	<path class="st0" d="M222.7,274.7c0.1,7.6,4.1,20.3,26.5,20.3c24.3,0,25.7-14.4,25.7-19.1c0-12.5-10.8-15.5-23.5-17.9
		c-5.2-1-12-2-12-7c0-2.9,2.3-5.5,9.4-5.5c7.7,0,10.1,3.1,10.4,6.2h13.5c-0.2-8.4-6.2-17.4-23.1-17.4c-18.3,0-24.9,7.7-24.9,17
		c0,12.8,9.1,15.4,20.1,17.7c7.4,1.6,15.5,2.7,15.5,8.9c0,5-5.5,5.9-10.9,5.9c-10.2,0-12.2-5.6-12.2-9.1H222.7L222.7,274.7z
		 M202.1,235.9v57.4h14.3v-57.4H202.1L202.1,235.9z M198.8,282.2h-28.3v-46.2h-14.3v43.7l7.6,0l0,13.6h35V282.2L198.8,282.2z
		 M161.3,282.2v11.1H118v-57.4h14.3v46.2H161.3L161.3,282.2z M75.4,258.7v-11.6h33.7v-11.1h-48v57.4H110v-11.1H75.4v-12.9h29.7
		v-10.6H75.4L75.4,258.7z M14.3,269.1h13c5.2,0,9.7,1.1,9.7,6.6c0,5.2-5.4,6.5-7.9,6.5H14.3V269.1L14.3,269.1z M14.3,247.1h12.6
		c6.3,0,7.7,3.2,7.7,5.6c0,2.2-1.4,5.9-7.1,5.9H14.3V247.1L14.3,247.1z M0,235.9v57.4h28.9c10.8,0,23.3-2.2,23.3-16.1
		c0-10.6-8.2-13.8-12.9-14.7v-0.1c5.8-1.8,10-5.3,10-12c0-6.2-2.9-14.6-18.7-14.6H0z"/>
</g>
</svg>
