<svg id="Слой_1" data-name="Слой 1" xmlns="http://www.w3.org/2000/svg" viewBox="0 0 164.2 105.84"><defs><style>.cls-1{fill:none;stroke:#658AD4;stroke-miterlimit:10;stroke-width:6px;}</style></defs><title>company</title><g id="Слой_2" data-name="Слой 2"><circle class="cls-1" cx="82.03" cy="30.4" r="27.4"/><path class="cls-1" d="M84.95,124.6s22,1.8,40.2-17.9c0,0,1.5-19.2-12.7-24.9l-9.9-4.7a5.42,5.42,0,0,1-.7-3.4" transform="translate(-3.22 -21.8)"/><path class="cls-1" d="M85.75,124.6s-22,1.8-40.2-17.9c0,0-1.5-19.2,12.7-24.9l9.9-4.7a5.42,5.42,0,0,0,.7-3.4" transform="translate(-3.22 -21.8)"/></g><g id="Слой_2-2" data-name="Слой 2"><path class="cls-1" d="M112.42,45a22.21,22.21,0,1,1-1.59,17" transform="translate(-3.22 -21.8)"/><path class="cls-1" d="M131.79,114.12s17.83,1.46,32.59-14.51c0,0,1.22-15.56-10.29-20.18l-8-3.81a4.39,4.39,0,0,1-.57-2.76" transform="translate(-3.22 -21.8)"/><path class="cls-1" d="M110.15,79.43l8-3.81a4.39,4.39,0,0,0,.57-2.76" transform="translate(-3.22 -21.8)"/><path class="cls-1" d="M132.44,114.12a36.77,36.77,0,0,1-12.17-1.66" transform="translate(-3.22 -21.8)"/></g><g id="Слой_2-3" data-name="Слой 2"><path class="cls-1" d="M59.81,62.06a22.21,22.21,0,1,1-1.59-17" transform="translate(-3.22 -21.8)"/><path class="cls-1" d="M25.14,72.87a4.39,4.39,0,0,1-.57,2.76l-8,3.81C5,84.06,6.26,99.62,6.26,99.62c14.75,16,32.59,14.51,32.59,14.51" transform="translate(-3.22 -21.8)"/><path class="cls-1" d="M51.89,72.87a4.39,4.39,0,0,0,.57,2.76l8,3.81" transform="translate(-3.22 -21.8)"/><path class="cls-1" d="M50.37,112.47a36.77,36.77,0,0,1-12.17,1.66" transform="translate(-3.22 -21.8)"/></g></svg>