<svg width="46" height="26" viewBox="0 0 46 26" version="1.1" xmlns="http://www.w3.org/2000/svg" xmlns:xlink="http://www.w3.org/1999/xlink">
<title>Union</title>
<desc>Created using Figma</desc>
<g id="Canvas" transform="matrix(2 0 0 2 22 14)">
<g id="Union">
<use xlink:href="#path0_fill" transform="translate(-11 -7)" fill="#4C912E"/>
</g>
</g>
<defs>
<path id="path0_fill" fill-rule="evenodd" d="M 3 1L 20 1C 21.1046 1 22 1.89543 22 3L 22 10C 22 11.1046 21.1046 12 20 12L 3 12C 1.89543 12 1 11.1046 1 10L 1 3C 1 1.89543 1.89543 1 3 1ZM 0 3C 0 1.34315 1.34315 0 3 0L 20 0C 21.6569 0 23 1.34315 23 3L 23 10C 23 11.6569 21.6569 13 20 13L 3 13C 1.34315 13 0 11.6569 0 10L 0 3ZM 3.7627 6.71387L 6.84375 6.71387L 6.84375 5.94727L 3.7627 5.94727L 3.7627 3.66211L 7.29297 3.66211L 7.29297 2.89062L 2.8252 2.89062L 2.8252 10L 7.3418 10L 7.3418 9.2334L 3.7627 9.2334L 3.7627 6.71387ZM 12.5322 2.89062L 10.8281 5.61523L 9.11426 2.89062L 8.01562 2.89062L 10.2666 6.41602L 7.96191 10L 9.07031 10L 10.8281 7.22656L 12.5762 10L 13.6895 10L 11.3896 6.41602L 13.6357 2.89062L 12.5322 2.89062ZM 15.1152 5.98145C 15.4831 6.31673 16.069 6.59993 16.873 6.83105C 17.5143 7.0166 17.957 7.2054 18.2012 7.39746C 18.4453 7.58626 18.5674 7.85482 18.5674 8.20312C 18.5674 8.55143 18.4355 8.8265 18.1719 9.02832C 17.9082 9.23014 17.529 9.33105 17.0342 9.33105C 16.5036 9.33105 16.0788 9.20736 15.7598 8.95996C 15.444 8.70931 15.2861 8.36914 15.2861 7.93945L 14.3438 7.93945C 14.3438 8.35286 14.4577 8.72233 14.6855 9.04785C 14.9167 9.37337 15.2438 9.63053 15.667 9.81934C 16.0902 10.0049 16.5459 10.0977 17.0342 10.0977C 17.7861 10.0977 18.3867 9.92513 18.8359 9.58008C 19.2852 9.23177 19.5098 8.76953 19.5098 8.19336C 19.5098 7.83203 19.4284 7.5179 19.2656 7.25098C 19.1061 6.98405 18.8587 6.7513 18.5234 6.55273C 18.1914 6.35091 17.7292 6.16699 17.1367 6.00098C 16.5475 5.83496 16.1292 5.65267 15.8818 5.4541C 15.6377 5.25228 15.5156 5.00651 15.5156 4.7168C 15.5156 4.35547 15.6442 4.07389 15.9014 3.87207C 16.1618 3.66699 16.5231 3.56445 16.9854 3.56445C 17.4834 3.56445 17.8691 3.68815 18.1426 3.93555C 18.416 4.17969 18.5527 4.5166 18.5527 4.94629L 19.4951 4.94629C 19.4951 4.55241 19.3893 4.18945 19.1777 3.85742C 18.9694 3.52539 18.6732 3.26497 18.2891 3.07617C 17.9082 2.88737 17.4736 2.79297 16.9854 2.79297C 16.2692 2.79297 15.6865 2.97689 15.2373 3.34473C 14.7913 3.70931 14.5684 4.17155 14.5684 4.73145C 14.5684 5.22624 14.7507 5.6429 15.1152 5.98145Z"/>
</defs>
</svg>
