<?xml version="1.0" encoding="utf-8"?>
<!-- Generator: Adobe Illustrator 19.2.0, SVG Export Plug-In . SVG Version: 6.00 Build 0)  -->
<svg version="1.1" id="Layer_1" xmlns="http://www.w3.org/2000/svg" xmlns:xlink="http://www.w3.org/1999/xlink" x="0px" y="0px"
	 viewBox="0 0 388.1 388.1" style="enable-background:new 0 0 388.1 388.1;" xml:space="preserve">
<style type="text/css">
	.st0{fill:none;stroke:#000000;stroke-width:14;stroke-miterlimit:10;}
	.st1{fill:none;stroke:#000000;stroke-width:14;stroke-linecap:round;stroke-miterlimit:10;}
</style>
<path class="st0" d="M304,352.5H84c-6.6,0-12-5.4-12-12v-293c0-6.6,5.4-12,12-12h220c6.6,0,12,5.4,12,12v293
	C316,347.1,310.6,352.5,304,352.5z"/>
<line class="st1" x1="316" y1="103" x2="112" y2="103"/>
<path class="st0" d="M232,179.4l-12.1,21.1L194,156l-25.9,44.5l-12.1-21.1c0,0-26.7,33.2-8.4,71.2c15.3,31.8,46.4,31.8,46.4,31.8
	s31,0.1,46.4-31.8C258.6,212.6,232,179.4,232,179.4z"/>
<line class="st1" x1="212.7" y1="309.6" x2="175.3" y2="309.6"/>
</svg>
