<?xml version="1.0" encoding="utf-8"?>
<!-- Generator: Adobe Illustrator 19.2.0, SVG Export Plug-In . SVG Version: 6.00 Build 0)  -->
<svg version="1.1"
	 id="svg2" inkscape:version="0.48.4 r9939" sodipodi:docname="Conformit‚àö¬©_Europ‚àö¬©enne_(logo).svg" xmlns:cc="http://creativecommons.org/ns#" xmlns:dc="http://purl.org/dc/elements/1.1/" xmlns:inkscape="http://www.inkscape.org/namespaces/inkscape" xmlns:rdf="http://www.w3.org/1999/02/22-rdf-syntax-ns#" xmlns:sodipodi="http://sodipodi.sourceforge.net/DTD/sodipodi-0.dtd" xmlns:svg="http://www.w3.org/2000/svg"
	 xmlns="http://www.w3.org/2000/svg" xmlns:xlink="http://www.w3.org/1999/xlink" x="0px" y="0px" viewBox="0 0 469.8 476"
	 style="enable-background:new 0 0 469.8 476;" xml:space="preserve">
<style type="text/css">
	.st0{stroke:#000000;stroke-width:0.3756;}
</style>
<sodipodi:namedview  bordercolor="#666666" borderopacity="1.0" fit-margin-bottom="0" fit-margin-left="0" fit-margin-right="0" fit-margin-top="0" id="base" inkscape:current-layer="g3004" inkscape:cx="133.18474" inkscape:cy="100.05369" inkscape:document-units="px" inkscape:pageopacity="0.0" inkscape:pageshadow="2" inkscape:window-height="1028" inkscape:window-maximized="1" inkscape:window-width="1920" inkscape:window-x="1912" inkscape:window-y="-8" inkscape:zoom="2.8" pagecolor="#ffffff" showgrid="false">
	</sodipodi:namedview>
<g id="layer1" transform="translate(-1.7385019,-487.18166)" inkscape:groupmode="layer" inkscape:label="Layer 1">
	<g id="g3004" transform="translate(2.2385229,-365.68055)" inkscape:label="0">
		<path id="path3006" inkscape:connector-curvature="0" class="st0" d="M203.3,931.2v23c-29.2-4.2-56.1,16-60.3,45
			c-4.2,29.2,16,56.1,45,60.3c5,0.6,10.2,0.6,15.2,0v23c-41.8,4.2-79.2-26.4-83.4-68c-4.2-41.8,26.4-79.2,68-83.4
			C193.3,930.5,198.3,930.5,203.3,931.2z"/>
		<path id="path3008" inkscape:connector-curvature="0" class="st0" d="M273.2,995.5c6-27.4,32.1-45.4,59.6-41.3v-23
			c-41.8-4.2-79.2,26.4-83.4,68c-4.2,41.8,26.4,79.2,68,83.4c5,0.5,10.2,0.5,15.2,0v-23c-27.7,3.9-53.8-14.1-59.6-41.3h44.4v-22.8
			L273.2,995.5L273.2,995.5z"/>
	</g>
</g>
<g>
	<g>
		<path d="M152.8,295.5h36.3l3.4-22h-57l-18.3,120.4h59l3.3-22h-38.4l4.4-29.1h34.3l3.3-21.6h-34.3L152.8,295.5z M234.8,373.7
			c-17,0-25.6-12.9-25.6-32c0-16.8,5.1-30.5,13.3-38.8c5.9-6.1,13.7-9.3,22-9.3c8.3,0,14.6,2.1,17.4,3.9l5.6-20.9
			c-2.7-2.1-10.6-5.2-21-5.2c-13.6,0-25.4,4.1-35.4,12.9c-14.6,12.1-24.3,33.2-24.3,60.2c0,31.8,17.1,51.1,42.6,51.1
			c11.6,0,20.3-2.3,25.4-5.2l-1.7-20.7C248.2,372.3,241.5,373.7,234.8,373.7z M319.8,342.8l3.3-21.6h-34.3l4-25.7h36.3l3.4-22h-57
			l-18.3,120.4h59l3.3-22h-38.4l4.4-29.1H319.8z M394.4,295.5l3.4-22h-57l-18.3,120.4h59l3.3-22h-38.4l4.4-29.1h34.3l3.3-21.6h-34.3
			l4-25.7H394.4z"/>
	</g>
</g>
<polygon points="123.2,295.5 126.5,273.5 121.5,273.5 121.6,273.4 101,273.4 101,273.5 95.7,273.5 92.5,295.5 97.6,295.5 86,371.9 
	80.6,371.9 77.3,393.9 108.1,393.9 111.3,371.9 106.6,371.9 118.2,295.5 "/>
</svg>
