<?xml version="1.0" encoding="utf-8"?>
<!-- Generator: Adobe Illustrator 19.2.0, SVG Export Plug-In . SVG Version: 6.00 Build 0)  -->
<svg version="1.1" id="Layer_1" xmlns="http://www.w3.org/2000/svg" xmlns:xlink="http://www.w3.org/1999/xlink" x="0px" y="0px"
	 viewBox="0 0 496 496" style="enable-background:new 0 0 496 496;" xml:space="preserve">
<path d="M344.1,376.6c-1.3,3.3-5.1,4.8-8.4,3.5l-21.5-8.9c-3.8-1.6-8.2-0.3-10.4,3.1c-9.7,14.5-22,26.9-36.6,36.6
	c-3.4,2.3-4.7,6.6-3.1,10.4l8.8,21.5c1.3,3.2-0.2,7-3.5,8.4l-23.4,9.8c-3.2,1.3-7-0.2-8.4-3.5l-8.9-21.5c-1.6-3.8-5.6-6-9.6-5.1
	c-17.1,3.4-34.5,3.4-51.7,0c-4-0.8-8.1,1.3-9.6,5.1l-8.9,21.5c-1.3,3.2-5.1,4.8-8.4,3.5l-23.4-9.7c-1.6-0.7-2.8-1.9-3.5-3.5
	c-0.7-1.6-0.7-3.3,0-4.9l8.9-21.5c1.6-3.8,0.3-8.2-3.1-10.4c-14.5-9.7-26.9-22-36.6-36.6c-2.3-3.4-6.6-4.7-10.4-3.1l-21.5,8.9
	c-3.3,1.3-7-0.2-8.4-3.5l-9.7-23.4c-1.3-3.2,0.2-7,3.5-8.4l21.5-8.9c3.8-1.6,6-5.6,5.1-9.6c-3.4-17.1-3.4-34.5,0-51.7
	c0.8-4-1.3-8.1-5.1-9.6l-21.5-8.9c-1.6-0.7-2.8-1.9-3.5-3.5s-0.7-3.3,0-4.9l9.7-23.4c0.7-1.6,1.9-2.8,3.5-3.5c1.6-0.7,3.3-0.7,4.9,0
	l21.5,8.9c3.8,1.6,8.2,0.3,10.4-3.1c9.7-14.5,22-26.9,36.6-36.6c3.4-2.3,4.7-6.6,3.1-10.4l-8.9-21.5c-0.7-1.6-0.7-3.3,0-4.9
	c0.7-1.6,1.9-2.8,3.5-3.5l23.4-9.7c3.2-1.3,7,0.2,8.4,3.5l8.9,21.5c1.8,4.4,6.8,6.5,11.2,4.7c4.4-1.8,6.5-6.8,4.7-11.2L165,137
	c-5-12.1-18.8-17.8-30.9-12.8l-23.4,9.7c-5.8,2.4-10.4,6.9-12.8,12.8c-2.4,5.8-2.4,12.2,0,18.1l6.3,15.1
	c-12,8.8-22.5,19.4-31.4,31.4l-15.1-6.3c-5.8-2.4-12.2-2.4-18.1,0c-5.8,2.4-10.4,6.9-12.8,12.8l-9.7,23.4c-2.4,5.8-2.4,12.2,0,18.1
	c2.4,5.8,6.9,10.4,12.8,12.8l15.1,6.3c-2.3,14.8-2.3,29.6,0,44.4l-15.1,6.3c-12.1,5-17.8,18.8-12.8,30.9l9.7,23.1
	c4.9,12.1,18.8,17.8,30.9,12.8l15.1-6.3c8.8,12,19.4,22.5,31.4,31.4l-6.3,15.1c-2.4,5.8-2.4,12.2,0,18.1c2.4,5.8,6.9,10.4,12.8,12.8
	l23.4,9.7c12.1,4.9,25.9-0.8,30.9-12.8l6.3-15.1c14.8,2.3,29.6,2.3,44.4,0l6.3,15.1c3.8,9.1,12.6,14.6,21.8,14.6c3,0,6.1-0.6,9-1.8
	l23.4-9.7c12.1-5,17.8-18.8,12.8-30.9l-6.3-15.1c12-8.8,22.5-19.4,31.4-31.4l15.1,6.3c12.1,5,25.9-0.8,30.9-12.8l9.7-23.4
	c2.4-5.8,2.4-12.2,0-18.1c-2.4-5.8-6.9-10.4-12.8-12.8l-21.5-8.9c-4.4-1.8-9.4,0.3-11.2,4.7s0.3,9.4,4.7,11.2l21.5,8.9
	c1.6,0.7,2.8,1.9,3.5,3.5c0.7,1.6,0.7,3.3,0,4.9L344.1,376.6z"/>
<path d="M192.9,241.8c4.7,0,8.5-3.9,8.5-8.6s-3.9-8.5-8.6-8.5c0,0,0,0-0.1,0c-20.3,0.2-39.3,8.2-53.6,22.6
	c-14.2,14.4-22,33.6-21.8,53.8c0.2,20.3,8.2,39.3,22.6,53.6c14.3,14.1,33.2,21.8,53.3,21.8c0.2,0,0.4,0,0.6,0
	c20.3-0.2,39.3-8.2,53.6-22.6c14.2-14.4,22-33.6,21.8-53.8c0-4.7-3.9-8.5-8.6-8.5c0,0,0,0-0.1,0c-4.7,0-8.5,3.9-8.5,8.6
	c0.1,15.7-5.9,30.5-16.9,41.7c-11,11.2-25.7,17.4-41.4,17.5c-0.2,0-0.3,0-0.5,0c-15.5,0-30.2-6-41.2-16.9
	c-11.2-11-17.4-25.7-17.5-41.4s5.9-30.5,16.9-41.7C162.5,248.1,177.2,241.9,192.9,241.8z"/>
<path d="M461.2,183.3c10.7,0,19.6-8.7,19.6-19.6v-18.3c0-10.7-8.7-19.6-19.6-19.6h-10c-2.6-9.5-6.3-18.6-11.2-27.1l7.1-7.1
	c7.6-7.6,7.6-20,0-27.6l-13-13c-3.7-3.7-8.6-5.7-13.8-5.7c-5.2,0-10.2,2-13.8,5.7l-7.1,7.1c-8.5-4.9-17.6-8.7-27.1-11.2V36.9
	c0-10.7-8.7-19.6-19.6-19.6h-18.4c-10.7,0-19.6,8.7-19.6,19.6v10.1c-9.5,2.6-18.6,6.3-27.1,11.2l-7.1-7.1c-3.7-3.7-8.6-5.7-13.8-5.7
	c-5.2,0-10.2,2-13.8,5.7l-13,13c-7.6,7.6-7.6,20,0,27.6l7.1,7.1c-4.9,8.5-8.7,17.6-11.2,27.1H226c-10.7,0-19.6,8.7-19.6,19.6v18.4
	c0,10.7,8.7,19.6,19.6,19.6H236c2.6,9.5,6.3,18.6,11.2,27.1l-7.1,7.1c-7.6,7.6-7.6,20,0,27.6l13,13c3.7,3.7,8.6,5.7,13.8,5.7
	c5.2,0,10.2-2,13.8-5.7l7.1-7.1c8.5,4.9,17.6,8.7,27.1,11.2v10.1c0,10.7,8.7,19.6,19.6,19.6h18.4c10.7,0,19.6-8.7,19.6-19.6v-10.2
	c9.5-2.6,18.6-6.3,27.1-11.2l7.1,7.1c3.7,3.7,8.6,5.7,13.8,5.7c5.2,0,10.2-2,13.8-5.7l13-13c7.6-7.6,7.6-20,0-27.6l-7.1-7.1
	c4.9-8.5,8.7-17.6,11.2-27.1L461.2,183.3L461.2,183.3z M435.9,173c-2.4,12.2-7.1,23.5-14.1,33.9c-2.3,3.4-1.8,8,1,10.8l12,12
	c0.9,0.9,0.9,2.4,0,3.3l-13,13c-0.6,0.6-1.2,0.7-1.6,0.7c-0.5,0-1-0.1-1.6-0.7l-12-12c-2.9-2.9-7.5-3.3-10.8-1
	c-10.4,6.9-21.7,11.6-33.9,14.1c-4,0.8-6.9,4.4-6.9,8.5v16.9c0,1.2-1,2.3-2.3,2.3h-18.4c-1.2,0-2.3-1-2.3-2.3v-16.9
	c0-4.1-2.9-7.6-6.9-8.5c-12.2-2.4-23.5-7.1-33.9-14.1c-1.4-0.9-3.1-1.4-4.7-1.4c-2.2,0-4.5,0.9-6.1,2.6l-12,12
	c-0.6,0.6-1.2,0.7-1.6,0.7c-0.5,0-1-0.1-1.6-0.7l-13-13c-0.9-0.9-0.9-2.4,0-3.3l12-12c2.9-2.9,3.3-7.5,1-10.8
	c-6.9-10.4-11.6-21.7-14.1-33.9c-0.8-4-4.4-6.9-8.5-6.9h-16.9c-1.2,0-2.3-1-2.3-2.3v-18.5c0-1.2,1-2.3,2.3-2.3h16.9
	c4.1,0,7.6-2.9,8.5-6.9c2.4-12.2,7.1-23.5,14.1-33.9c2.3-3.4,1.8-8-1-10.8l-12-12c-0.6-0.6-0.7-1.2-0.7-1.6c0-0.5,0.1-1,0.7-1.6
	l12.9-13.1c0.6-0.6,1.2-0.7,1.6-0.7c0.5,0,1,0.1,1.6,0.7l12,12c2.9,2.9,7.5,3.3,10.8,1c10.4-6.9,21.7-11.6,33.9-14.1
	c4-0.8,6.9-4.4,6.9-8.5V36.9c0-1.2,1-2.3,2.3-2.3h18.4c1.2,0,2.3,1,2.3,2.3v16.9c0,4.1,2.9,7.6,6.9,8.5c12.2,2.4,23.5,7.1,33.9,14.1
	c3.4,2.3,8,1.8,10.8-1l12-12c0.6-0.6,1.2-0.7,1.6-0.7c0.5,0,1,0.1,1.6,0.7l13,13c0.9,0.9,0.9,2.4,0,3.3l-12,12
	c-2.9,2.9-3.3,7.5-1,10.8c6.9,10.4,11.6,21.7,14.1,33.9c0.8,4,4.4,6.9,8.5,6.9h16.9c1.2,0,2.3,1,2.3,2.3v18.4c0,1.2-1,2.3-2.3,2.3
	h-16.9C440.2,166.1,436.7,168.9,435.9,173z"/>
<path d="M343.5,99.3c-30.5,0-55.2,24.8-55.2,55.2c0,30.5,24.8,55.2,55.2,55.2c30.5,0,55.2-24.8,55.2-55.2S373.9,99.3,343.5,99.3z
	 M343.5,192.5c-21,0-38-17-38-38s17-38,38-38c21,0,38,17,38,38S364.4,192.5,343.5,192.5z"/>
</svg>
