<?xml version="1.0" encoding="utf-8"?>
<!-- Generator: Adobe Illustrator 21.0.2, SVG Export Plug-In . SVG Version: 6.00 Build 0)  -->
<svg version="1.1" id="Layer_2" xmlns="http://www.w3.org/2000/svg" xmlns:xlink="http://www.w3.org/1999/xlink" x="0px" y="0px"
	 viewBox="0 0 400 424.2" style="enable-background:new 0 0 400 424.2;" xml:space="preserve">
<style type="text/css">
	.st0{fill:none;stroke:#000000;stroke-width:14;stroke-linecap:round;stroke-linejoin:round;stroke-miterlimit:10;}
</style>
<g>
	<path d="M287.1,121.2h-19l-2.6,9h-17.2l20.4-54.3H287l20.4,54.3h-17.6L287.1,121.2z M283.6,109.4l-6-19.5l-5.9,19.5H283.6z"/>
</g>
<polygon class="st0" points="191.1,134.9 34.1,134.9 34.1,72 191.1,72 221.7,103.5 "/>
<g>
	<path d="M287.7,174.2h32c5.3,0,9.4,1.3,12.3,4c2.9,2.6,4.3,5.9,4.3,9.8c0,3.3-1,6.1-3.1,8.4c-1.4,1.6-3.3,2.8-6,3.7
		c4,1,6.9,2.6,8.8,4.9c1.9,2.3,2.8,5.2,2.8,8.8c0,2.9-0.7,5.4-2,7.7c-1.3,2.3-3.2,4.1-5.5,5.4c-1.4,0.8-3.6,1.4-6.5,1.8
		c-3.8,0.5-6.4,0.8-7.7,0.8h-29.4V174.2z M304.9,195.9h7.4c2.7,0,4.5-0.5,5.6-1.4c1-0.9,1.6-2.2,1.6-4c0-1.6-0.5-2.9-1.6-3.8
		c-1-0.9-2.9-1.4-5.4-1.4H305v10.6H304.9z M304.9,217.6h8.7c2.9,0,5-0.5,6.2-1.6c1.2-1,1.8-2.4,1.8-4.2c0-1.6-0.6-2.9-1.8-3.9
		c-1.2-1-3.3-1.5-6.3-1.5h-8.7L304.9,217.6L304.9,217.6z"/>
</g>
<polygon class="st0" points="229.5,233.8 34.1,233.8 34.1,170.9 229.5,170.9 260.1,202.3 "/>
<g>
	<path d="M362.1,306.2l16.2,4.9c-1.1,4.6-2.8,8.4-5.2,11.4c-2.3,3.1-5.3,5.4-8.7,6.9c-3.5,1.6-7.9,2.3-13.3,2.3
		c-6.5,0-11.8-0.9-16-2.8c-4.2-1.9-7.7-5.2-10.7-10s-4.5-10.9-4.5-18.3c0-9.9,2.6-17.5,7.9-22.9c5.3-5.3,12.7-8,22.4-8
		c7.5,0,13.5,1.5,17.8,4.6c4.3,3.1,7.5,7.7,9.6,14.1l-16.2,3.6c-0.6-1.8-1.2-3.2-1.8-4c-1-1.4-2.3-2.5-3.8-3.3s-3.2-1.1-5-1.1
		c-4.2,0-7.4,1.7-9.6,5.1c-1.7,2.5-2.5,6.4-2.5,11.8c0,6.6,1,11.2,3,13.7s4.9,3.7,8.5,3.7c3.5,0,6.2-1,8-3
		C359.9,312.8,361.2,310,362.1,306.2z"/>
</g>
<polygon class="st0" points="260.1,332.6 33.9,332.6 33.9,269.7 260.1,269.7 290.7,301.2 "/>
</svg>
