<svg width="1305" height="999" viewBox="0 0 1305 999" version="1.1" xmlns="http://www.w3.org/2000/svg" xmlns:xlink="http://www.w3.org/1999/xlink">
<title>&#209;&#129;&#208;&#181;&#209;&#128;&#208;&#180;&#209;&#134;&#208;&#181;</title>
<desc>Created using Figma</desc>
<g id="Canvas" transform="translate(733 444)">
<g id="&#209;&#129;&#208;&#181;&#209;&#128;&#208;&#180;&#209;&#134;&#208;&#181;">
<use xlink:href="#path0_fill" transform="translate(-733 -444)"/>
</g>
</g>
<defs>
<path id="path0_fill" fill-rule="evenodd" d="M 266.94 506.945L 264.559 504.564L 261.959 502.422C 253.181 495.188 244.921 487.36 237.24 479L 434.379 479C 444.267 479 453.3 473.391 457.684 464.527L 523.662 331.136L 646.61 664.12C 654.975 686.774 687.014 686.781 695.387 664.13L 796.266 391.262L 832.294 464.479C 836.668 473.369 845.715 479 855.622 479L 1088.76 479C 1084.66 483.456 1080.4 487.761 1075.99 491.905L 1071.46 496.163L 1070.34 497.663L 664 904.005L 266.94 506.945ZM 1124.27 429L 870.561 429L 816.459 319.051C 806.376 298.559 776.664 300.093 768.744 321.515L 671.015 585.864L 551.257 261.52C 543.353 240.114 513.678 238.545 503.561 258.998L 419.475 429L 201.728 429C 183.378 394.728 173 355.585 173 314C 173 179.242 282.242 70 417 70C 494.41 70 563.376 105.968 608.19 162.38L 663 231.376L 717.81 162.38C 762.624 105.968 831.59 70 909 70C 1043.76 70 1153 179.242 1153 314C 1153 355.598 1142.62 394.734 1124.27 429ZM 1201.27 429C 1215.3 393.387 1223 354.593 1223 314C 1223 140.583 1082.42 0 909 0C 834.699 0 766.425 25.807 712.654 68.9465C 694.301 83.6706 677.637 100.414 663 118.839C 648.363 100.414 631.699 83.6706 613.346 68.9465C 559.575 25.807 491.301 0 417 0C 243.583 0 103 140.583 103 314C 103 354.593 110.703 393.387 124.727 429L 74 429L 25 429L 21 429L 21 429.318C 9.0943 431.233 0 441.554 0 454C 0 466.446 9.0943 476.767 21 478.682L 21 479L 25 479L 74 479L 149.795 479C 167.983 508.39 190.883 534.556 217.443 556.443L 656.929 995.929C 660.834 999.834 667.166 999.834 671.071 995.929L 1122.9 544.098C 1123.28 543.724 1123.61 543.334 1123.91 542.931C 1144.01 524.056 1161.62 502.565 1176.2 479L 1231 479L 1280 479L 1281 479L 1281 478.98C 1294.34 478.455 1305 467.472 1305 454C 1305 440.528 1294.34 429.545 1281 429.02L 1281 429L 1280 429L 1231 429L 1201.27 429Z"/>
</defs>
</svg>
