<?xml version="1.0" encoding="utf-8"?>
<!-- Generator: Adobe Illustrator 21.0.2, SVG Export Plug-In . SVG Version: 6.00 Build 0)  -->
<svg version="1.1" id="Слой_1" xmlns="http://www.w3.org/2000/svg" xmlns:xlink="http://www.w3.org/1999/xlink" x="0px" y="0px"
	 viewBox="0 0 850 850" style="enable-background:new 0 0 850 850;" xml:space="preserve">
<style type="text/css">
	.st0{fill:none;stroke:#658AD4;stroke-width:18;stroke-linecap:round;stroke-linejoin:round;stroke-miterlimit:40;}
</style>
<path class="st0" d="M672.5,300.5v280c0,0,2,30-31,30s-30-27-30-27V283v-3.8c0-12-9.7-21.7-21.7-21.7h-2.2H201.2
	c-12,0-21.7,9.7-21.7,21.7V583c0,0,0.5,27,28.5,27s433,0,433,0"/>
<line class="st0" x1="247" y1="344" x2="543" y2="344"/>
<line class="st0" x1="247" y1="403" x2="365" y2="403"/>
<line class="st0" x1="247" y1="463" x2="365" y2="463"/>
<line class="st0" x1="247" y1="523" x2="365" y2="523"/>
<line class="st0" x1="423" y1="403" x2="541" y2="403"/>
<line class="st0" x1="423" y1="463" x2="541" y2="463"/>
<line class="st0" x1="423" y1="523" x2="541" y2="523"/>
</svg>
