<svg width="1430" height="1818" viewBox="0 0 1430 1818" version="1.1" xmlns="http://www.w3.org/2000/svg" xmlns:xlink="http://www.w3.org/1999/xlink">
<title>rohs</title>
<desc>Created using Figma</desc>
<g id="Canvas" transform="translate(1081 934)">
<g id="rohs">
<use xlink:href="#path0_fill" transform="translate(-1080.01 -933.353)"/>
</g>
</g>
<defs>
<path id="path0_fill" fill-rule="evenodd" d="M 1338.74 30.6334C 1338.71 30.855 1338.67 31.1215 1338.63 31.4319C 1338.69 30.9846 1338.73 30.7069 1338.74 30.6455L 1338.74 30.6334ZM 1324.27 254.587C 1325.51 199.906 1328.78 146.174 1331.92 104.964C 1307.87 122.463 1278.36 145.428 1244.46 174.467C 1165.12 242.371 1065.99 339.685 968.306 468.79C 810.844 676.418 665.385 960.049 611.072 1078.42C 596.519 1110.13 557.976 1102.58 545.949 1080.73L 356.845 737.065L 110.974 887.807C 187.204 928.291 274.496 997.562 355.48 1069.89C 444.871 1149.75 531.209 1237.67 592.969 1304.7C 821.522 902.977 1169.46 609.757 1345.76 492.249C 1343.8 487.213 1342.13 482.166 1340.7 477.286C 1335.46 459.237 1331.44 436.175 1328.88 412.618C 1323.9 366.078 1323.06 308.929 1324.27 254.587ZM 1408.97 41.1005C 1409.09 40.2384 1409.35 37.0118 1409.36 34.563L 1409.36 34.4693C 1409.29 32.2956 1408.92 19.0185 1397.2 8.77722C 1384.21 -2.57111 1369.61 0.100159 1366.63 0.709351C 1363.86 1.38409 1360.18 2.66284 1359.13 3.10992C 1348.9 7.63593 1328.3 20.4138 1302.08 38.9844C 1275.21 58.0221 1239.17 85.5437 1198.29 120.535C 1117.12 190.054 1012.67 292.804 911.713 425.916C 773.794 608.159 644.509 847.428 575.725 987.564L 401.617 671.156C 391.575 652.906 368.32 646.748 350.561 657.636L 17.3599 861.92C -5.67212 876.04 -8.50488 917.305 25.5504 927.887C 97.1772 950.145 202.133 1028.13 308.187 1122.84C 412.684 1216.13 512.018 1319.83 572.562 1387.91C 591.232 1408.9 621.282 1400.77 631.962 1380.89C 864.617 947.789 1248.92 635.807 1411.7 534.16C 1432.51 521.163 1434.52 492.403 1417.05 476.349L 1417.12 476.399C 1417.3 476.52 1417.38 476.577 1417.39 476.568C 1417.4 476.561 1417.34 476.5 1417.24 476.386C 1416.82 475.916 1415.6 474.531 1414.44 472.137C 1412.25 467.984 1410.77 464.016 1408.82 457.279C 1404.62 443.175 1401.76 426.329 1399.47 404.999C 1394.77 361.764 1394.06 309.224 1395.25 256.176C 1396.43 203.154 1399.56 151.551 1402.59 111.532C 1404.09 91.5935 1405.56 74.8516 1406.74 62.3564C 1407.49 54.4728 1408.29 47.3141 1408.71 43.6002L 1408.71 43.5906C 1408.95 41.4919 1409.06 40.4975 1408.97 41.1005ZM 239.99 1682.23L 298.34 1682.23L 364.99 1812.35L 443.603 1812.35L 443.603 1808.93L 366.699 1663.67C 388.021 1654.07 403.89 1641.21 414.306 1625.1C 424.886 1608.82 430.176 1588.56 430.176 1564.31C 430.176 1530.13 418.782 1503.68 395.996 1484.96C 373.209 1466.24 340.82 1456.88 298.828 1456.88L 166.748 1456.88L 166.748 1812.35L 239.99 1812.35L 239.99 1682.23ZM 299.072 1622.9L 239.99 1622.9L 239.99 1516.21L 298.828 1516.21C 318.522 1516.21 333.089 1521.01 342.529 1530.61C 352.132 1540.22 356.933 1553.4 356.933 1570.17C 356.933 1586.6 351.888 1599.54 341.797 1608.98C 331.706 1618.26 317.464 1622.9 299.072 1622.9ZM 485.596 1607.76C 475.504 1628.27 470.459 1651.63 470.459 1677.83L 470.459 1681.01C 470.459 1723 481.771 1756.2 504.394 1780.61C 527.181 1805.03 557.617 1817.24 595.703 1817.24C 633.789 1817.24 664.144 1805.03 686.767 1780.61C 709.391 1756.04 720.703 1723.49 720.703 1682.96L 720.215 1664.89C 717.611 1627.46 704.997 1597.83 682.373 1576.02C 659.912 1554.21 630.859 1543.31 595.215 1543.31C 570.15 1543.31 548.096 1548.92 529.053 1560.16C 510.172 1571.39 495.687 1587.26 485.596 1607.76ZM 555.176 1740.58C 545.735 1727.23 541.015 1708.02 541.015 1682.96C 541.015 1654.8 545.735 1634.05 555.176 1620.7C 564.616 1607.19 577.962 1600.44 595.215 1600.44C 612.63 1600.44 626.139 1607.19 635.742 1620.7C 645.345 1634.21 650.146 1653.25 650.146 1677.83C 650.146 1706.64 645.345 1727.64 635.742 1740.82C 626.139 1753.84 612.793 1760.35 595.703 1760.35C 578.125 1760.35 564.616 1753.76 555.176 1740.58ZM 984.863 1812.35L 1058.11 1812.35L 1058.11 1456.88L 984.863 1456.88L 984.863 1600.93L 842.041 1600.93L 842.041 1456.88L 768.799 1456.88L 768.799 1812.35L 842.041 1812.35L 842.041 1660.01L 984.863 1660.01L 984.863 1812.35ZM 1291.99 1687.35C 1301.76 1694.68 1306.64 1705.26 1306.64 1719.09C 1306.64 1731.79 1301.76 1741.71 1291.99 1748.88C 1282.23 1755.87 1268.64 1759.37 1251.22 1759.37C 1204.35 1759.37 1180.91 1739.76 1180.91 1700.54L 1107.42 1700.54C 1107.42 1723.49 1113.28 1743.67 1125 1761.08C 1136.88 1778.5 1154.05 1792.25 1176.51 1802.34C 1198.97 1812.27 1223.88 1817.24 1251.22 1817.24C 1290.61 1817.24 1321.94 1808.53 1345.21 1791.11C 1368.49 1773.53 1380.13 1749.36 1380.13 1718.6C 1380.13 1690.93 1370.61 1667.82 1351.56 1649.27C 1332.52 1630.71 1302.16 1615.17 1260.5 1602.64C 1237.87 1595.8 1220.7 1588.48 1208.98 1580.66C 1197.43 1572.85 1191.65 1563.17 1191.65 1551.61C 1191.65 1539.24 1196.61 1529.31 1206.54 1521.83C 1216.47 1514.18 1230.39 1510.35 1248.29 1510.35C 1266.85 1510.35 1281.25 1514.91 1291.5 1524.02C 1301.76 1532.97 1306.88 1545.59 1306.88 1561.86L 1380.13 1561.86C 1380.13 1540.54 1374.59 1521.5 1363.53 1504.74C 1352.62 1487.97 1337.24 1475.03 1317.38 1465.92C 1297.53 1456.64 1274.9 1452 1249.51 1452C 1224.28 1452 1201.5 1456.23 1181.15 1464.7C 1160.97 1473.16 1145.43 1484.96 1134.52 1500.1C 1123.78 1515.07 1118.41 1532.16 1118.41 1551.37C 1118.41 1588.31 1138.59 1617.69 1178.95 1639.5C 1193.77 1647.48 1213.87 1655.61 1239.26 1663.92C 1264.65 1672.05 1282.23 1679.87 1291.99 1687.35Z"/>
</defs>
</svg>
