<?xml version="1.0" encoding="utf-8"?>
<!-- Generator: Adobe Illustrator 17.1.0, SVG Export Plug-In . SVG Version: 6.00 Build 0)  -->
<!DOCTYPE svg PUBLIC "-//W3C//DTD SVG 1.1//EN" "http://www.w3.org/Graphics/SVG/1.1/DTD/svg11.dtd">
<svg version="1.1" id="Layer_5" xmlns="http://www.w3.org/2000/svg" xmlns:xlink="http://www.w3.org/1999/xlink" x="0px" y="0px"
	 viewBox="0 0 512 512" enable-background="new 0 0 512 512" xml:space="preserve">
<path fill="#D9D9D9" d="M153.5,12c24.7,0,47.9,6.5,68.1,17.8c11-1.6,22.2-2.5,33.7-2.5c125.3,0,226.9,101.6,226.9,226.9
	c0,12-0.9,23.8-2.7,35.2c13.3,21.4,21,46.6,21,73.6c0,77-62.4,139.4-139.4,139.4c-28.5,0-54.9-8.5-77-23.2
	c-9.4,1.2-19.1,1.8-28.9,1.8c-125.3,0-226.9-101.6-226.9-226.9c0-12.2,1-24.2,2.8-35.9c-10.9-19.9-17.1-42.7-17.1-66.9
	C14.1,74.4,76.5,12,153.5,12 M153.5,32C121.6,32,91.6,44.5,69,67c-22.6,22.6-35,52.5-35,84.4c0,20,5.1,39.8,14.6,57.3l3.3,6
	l-1.1,6.8c-1.7,10.8-2.6,21.8-2.6,32.7c0,27.9,5.5,55,16.3,80.5c10.4,24.6,25.3,46.8,44.4,65.8c19,19,41.1,33.9,65.8,44.4
	c25.5,10.8,52.6,16.3,80.5,16.3c8.8,0,17.7-0.6,26.3-1.7l7.4-0.9l6.2,4.1c19.6,13,42.4,19.9,65.9,19.9c31.9,0,61.9-12.4,84.4-35
	s35-52.5,35-84.4c0-22.3-6.2-44.1-18-63l-3.9-6.3l1.1-7.4c1.7-10.6,2.5-21.4,2.5-32.2c0-27.9-5.5-55-16.3-80.5
	c-10.4-24.6-25.3-46.8-44.4-65.8c-19-19-41.1-33.9-65.8-44.4c-25.5-10.8-52.6-16.3-80.5-16.3c-10.3,0-20.6,0.8-30.7,2.3l-6.8,1
	l-6-3.3C194,37.3,173.9,32,153.5,32z"/>
<path fill="#D9D9D9" d="M242.8,221.8l47.3,10.7c43.3,9.9,64.9,33.7,64.9,71.3c0,23.4-8.5,42-25.5,55.8
	c-17.9,14.9-43.4,22.4-76.4,22.4c-32.8,0-59-7.1-78.5-21.4c-16.7-11.9-25.1-25.7-25.1-41.4c0-6.9,2.2-12.5,6.7-16.9
	c4.5-4.4,10.1-6.5,17-6.5c8,0,15.2,3.9,21.6,11.7c10.3,12.6,16.6,19.8,18.9,21.4c9.9,7.8,22.9,11.7,39.2,11.7
	c14,0,25.2-3.4,33.7-10.3c7.8-6.2,11.7-13.7,11.7-22.4c0-13.1-8.1-21.7-24.2-25.8l-63.9-16.2c-40.5-10.3-60.8-33-60.8-67.9
	c0-25.5,10.5-45,31.4-58.6c18-11.5,40.5-17.2,67.7-17.2c23.5,0,45.1,5.5,64.9,16.5c20.9,11.7,31.4,25.5,31.4,41.4
	c0,6.9-2.5,12.4-7.6,16.4c-5.1,4-11.2,6-18.3,6c-6.9,0-13.4-3.2-19.3-9.6c-9.2-9.9-15.2-15.7-18-17.6c-9.4-6.4-21.8-9.6-36.9-9.6
	c-12.9,0-22.9,2.7-30,8.1c-7.1,5.4-10.7,12.5-10.7,21.2C204.2,207.1,217.1,216,242.8,221.8z"/>
</svg>
